<svg width="136" height="97" viewBox="0 0 136 97" fill="none" xmlns="http://www.w3.org/2000/svg">
    <g fill="white">
        <path d="M49.8879 46.4375H45.875V63.8283H49.8879V46.4375Z"></path>
        <path d="M97.0519 46.4375H93.0391V63.8283H97.0519V46.4375Z"></path>
        <path d="M114.556 47.5942V46.4297H99.1719V49.896H104.8V63.8279H108.813V49.896H112.254L114.556 47.5942Z"></path>
        <path d="M128.302 46.4219L123.957 53.2413L119.612 46.4219L116 46.4317V47.5962L121.95 57.4364V63.8299H125.963V57.4364L131.916 47.5962V46.4317L128.302 46.4219Z"></path>
        <path d="M70.2076 61.526V48.7291L67.9082 46.4297H55.19L52.8906 48.7291V61.526L55.19 63.8254H67.9082L70.2076 61.5236V61.526ZM66.1947 59.5196L65.3724 60.3419L65.3921 60.3615H57.7061L57.7258 60.3419L56.9035 59.5196V50.7183L57.7258 49.896H65.3749L66.1972 50.7183V59.5196H66.1947Z"></path>
        <path d="M43.6086 63.823V62.6683L41.4692 56.7893L42.8873 55.3713V48.7291L40.5879 46.4297H25.5703V63.8279H29.5832V58.3206H38.0275L40.029 63.8205H43.6086V63.823ZM38.8744 54.0345L38.0521 54.8568H29.5807V49.8985H38.0521L38.8744 50.7208V54.0345Z"></path>
        <path d="M90.7571 63.823V62.6683L88.6177 56.7893L90.0357 55.3713V48.7291L87.7363 46.4297H72.7188V63.8279H76.7316V58.3206H85.1759L87.1775 63.8205H90.7571V63.823ZM86.0204 54.0345L85.1981 54.8568H76.7267V49.8985H85.1981L86.0204 50.7208V54.0345Z"></path>
        <path d="M20.2799 46.4297H4.07812V47.5917L5.26476 50.1939V63.8279H9.27765V58.3206H20.2823L22.5817 56.0212V48.7291L20.2823 46.4297H20.2799ZM18.5688 54.032L17.7466 54.8543H9.27519V49.896H17.7466L18.5688 50.7183V54.032Z"></path>
        <path d="M52.1146 68.7109L52.1094 68.7294L52.1331 68.7109H52.1146Z"></path>
    </g>
    <path d="M82.1127 37.8734L78.0309 34.9092L68.1636 4.53931L58.2963 34.9092L54.2145 37.8734H22.2812L28.5492 42.4279H55.7113L62.1763 37.7306L68.1636 19.3082L74.1485 37.7306L80.6159 42.4279H107.778L114.043 37.8734H82.1127Z" fill="#EB4D13"></path>
    <path d="M90.5078 73.2901L84.2251 68.7282L87.8441 79.8633L72.4942 68.7109H63.8406L48.4931 79.8633L52.1097 68.7282L45.8294 73.2901L39.8125 91.8109L65.3251 73.2753H71.0121L96.5247 91.8109L90.5078 73.2901Z" fill="#EB4D13"></path>
</svg>
